<?xml version="1.0" encoding="UTF-8" standalone="no"?><svg width="34" height="33" viewBox="0 0 34 33" fill="none" xmlns="http://www.w3.org/2000/svg">
<path opacity="0.3" d="M31.7811 25.4555C31.9895 25.3998 32.0326 24.8982 31.9104 24.2712C32.5284 24.0413 32.9451 23.7487 32.8805 23.5467C32.823 23.3447 32.3128 23.3029 31.6589 23.4213C31.4218 22.8222 31.12 22.4181 30.9117 22.4739C30.7033 22.5296 30.6602 23.0312 30.7823 23.6582C30.1644 23.8881 29.7476 24.1807 29.8123 24.3827C29.8698 24.5847 30.3799 24.6265 31.0338 24.5081C31.2637 25.1072 31.5727 25.5113 31.7811 25.4555Z" fill="white"/>
<path d="M13.7109 1.79622C15.0754 0.343966 17.3907 0.343967 18.7552 1.79623L20.2813 3.42045C20.9619 4.14478 21.924 4.54117 22.9201 4.50768L25.1538 4.43259C27.1511 4.36545 28.7882 5.99395 28.7207 7.98062L28.6452 10.2025C28.6116 11.1934 29.0101 12.1504 29.7382 12.8273L31.3711 14.3454C32.8311 15.7027 32.8311 18.0057 31.3711 19.363L29.7382 20.8811C29.0101 21.558 28.6116 22.515 28.6452 23.5059L28.7207 25.7278C28.7882 27.7145 27.1511 29.343 25.1538 29.2758L22.9201 29.2007C21.924 29.1672 20.9619 29.5636 20.2813 30.288L18.7552 31.9122C17.3907 33.3644 15.0754 33.3644 13.7109 31.9122L12.1848 30.288C11.5042 29.5636 10.5421 29.1672 9.54599 29.2007L7.31226 29.2758C5.31503 29.343 3.67788 27.7145 3.74538 25.7278L3.82086 23.5059C3.85453 22.515 3.45602 21.558 2.72785 20.8811L1.09499 19.363C-0.364996 18.0057 -0.364995 15.7027 1.09499 14.3454L2.72785 12.8273C3.45603 12.1504 3.85453 11.1934 3.82086 10.2025L3.74538 7.98062C3.67788 5.99395 5.31504 4.36545 7.31227 4.43259L9.54599 4.50768C10.5421 4.54117 11.5042 4.14477 12.1848 3.42045L13.7109 1.79622Z" fill="#2A2A37"/>
<path d="M13.8844 2.83439C15.1549 1.48229 17.3105 1.48229 18.5809 2.83439L20.0018 4.3466C20.6354 5.02097 21.5311 5.39003 22.4585 5.35885L24.5382 5.28894C26.3977 5.22643 27.922 6.74262 27.8591 8.59227L27.7888 10.6609C27.7575 11.5835 28.1285 12.4745 28.8065 13.1047L30.3267 14.5181C31.686 15.7818 31.686 17.926 30.3267 19.1897L28.8065 20.603C28.1285 21.2333 27.7575 22.1243 27.7888 23.0468L27.8591 25.1155C27.922 26.9652 26.3977 28.4813 24.5382 28.4188L22.4585 28.3489C21.5311 28.3178 20.6354 28.6868 20.0018 29.3612L18.5809 30.8734C17.3105 32.2255 15.1549 32.2255 13.8844 30.8734L12.4636 29.3612C11.8299 28.6868 10.9342 28.3178 10.0068 28.3489L7.92711 28.4188C6.06762 28.4813 4.54337 26.9652 4.60621 25.1155L4.6765 23.0468C4.70784 22.1243 4.33682 21.2333 3.65886 20.603L2.13861 19.1897C0.779316 17.926 0.779318 15.7818 2.13861 14.5181L3.65886 13.1047C4.33682 12.4745 4.70784 11.5835 4.6765 10.6609L4.60621 8.59227C4.54337 6.74262 6.06762 5.22643 7.92711 5.28894L10.0068 5.35885C10.9342 5.39003 11.8299 5.02097 12.4636 4.3466L13.8844 2.83439Z" fill="#FEA900"/>
<path d="M14.3193 5.43175C15.3545 4.33004 17.1109 4.33004 18.1461 5.43175L19.3038 6.66392C19.8201 7.21341 20.5499 7.51413 21.3056 7.48872L23.0002 7.43176C24.5153 7.38082 25.7573 8.61624 25.7061 10.1234L25.6488 11.8089C25.6233 12.5606 25.9256 13.2866 26.478 13.8002L27.7167 14.9518C28.8243 15.9815 28.8243 17.7286 27.7167 18.7583L26.478 19.9099C25.9256 20.4235 25.6233 21.1495 25.6488 21.9011L25.7061 23.5867C25.7573 25.0939 24.5153 26.3293 23.0002 26.2783L21.3056 26.2214C20.5499 26.196 19.8201 26.4967 19.3038 27.0462L18.1461 28.2783C17.1109 29.3801 15.3545 29.3801 14.3193 28.2783L13.1616 27.0462C12.6453 26.4967 11.9154 26.196 11.1598 26.2214L9.4652 26.2783C7.95006 26.3293 6.70808 25.0939 6.75929 23.5867L6.81656 21.9011C6.84209 21.1495 6.53978 20.4235 5.98737 19.9099L4.74865 18.7583C3.64108 17.7286 3.64108 15.9815 4.74865 14.9518L5.98737 13.8002C6.53978 13.2866 6.84209 12.5606 6.81656 11.8089L6.75929 10.1234C6.70808 8.61624 7.95007 7.38082 9.46521 7.43176L11.1598 7.48872C11.9154 7.51413 12.6453 7.21341 13.1616 6.66392L14.3193 5.43175Z" fill="#2A2A37"/>
<path d="M14.4929 6.46992C15.4339 5.46836 17.0307 5.46836 17.9717 6.46992L19.0242 7.59007C19.4936 8.08961 20.1571 8.36298 20.8441 8.33989L22.3846 8.2881C23.762 8.2418 24.891 9.3649 24.8445 10.735L24.7924 12.2674C24.7692 12.9507 25.0441 13.6107 25.5462 14.0776L26.6724 15.1245C27.6792 16.0606 27.6792 17.6489 26.6724 18.585L25.5462 19.6319C25.044 20.0988 24.7692 20.7587 24.7924 21.4421L24.8445 22.9744C24.891 24.3446 23.762 25.4677 22.3846 25.4214L20.8441 25.3696C20.1571 25.3465 19.4936 25.6199 19.0242 26.1194L17.9717 27.2395C17.0307 28.2411 15.4339 28.2411 14.4929 27.2395L13.4404 26.1194C12.971 25.6199 12.3075 25.3465 11.6206 25.3696L10.0801 25.4214C8.70265 25.4677 7.57358 24.3446 7.62013 22.9744L7.67219 21.4421C7.69541 20.7587 7.42057 20.0988 6.91838 19.6319L5.79227 18.585C4.78539 17.6489 4.78539 16.0606 5.79227 15.1245L6.91838 14.0776C7.42058 13.6107 7.69541 12.9507 7.67219 12.2674L7.62013 10.735C7.57358 9.3649 8.70265 8.2418 10.0801 8.2881L11.6206 8.33989C12.3075 8.36298 12.971 8.08961 13.4404 7.59007L14.4929 6.46992Z" fill="#FFC950"/>
<path d="M16.2329 7.38883C16.2329 7.08132 15.9796 6.82491 15.6822 6.90318C15.3069 7.00196 14.9535 7.2036 14.6674 7.50808L13.7202 8.51622C13.2978 8.9658 12.7006 9.21184 12.0823 9.19105L10.6959 9.14445C9.4562 9.10278 8.44003 10.1136 8.48195 11.3467L8.52879 12.7258C8.5497 13.3408 8.30235 13.9348 7.85038 14.355L6.83687 15.2972C6.53229 15.5804 6.33008 15.9298 6.23025 16.3011C6.14996 16.5996 6.40784 16.8544 6.71699 16.8544C7.02613 16.8544 7.2687 16.5985 7.3588 16.3028C7.45252 15.9951 7.62655 15.7067 7.88089 15.4702L8.78175 14.6327C9.18353 14.2592 9.40338 13.7312 9.3848 13.1845L9.34315 11.9586C9.30591 10.8626 10.2092 9.96407 11.3111 10.0011L12.5435 10.0425C13.0931 10.061 13.6239 9.84231 13.9994 9.44269L14.8414 8.54657C15.0805 8.29208 15.3725 8.11842 15.6838 8.02559C15.9785 7.93772 16.2329 7.69634 16.2329 7.38883Z" fill="#1E1F28" fill-opacity="0.25"/>
<path d="M16.2329 26.3202C16.2329 26.6277 16.4862 26.8841 16.7836 26.8058C17.1589 26.707 17.5123 26.5054 17.7984 26.2009L18.7456 25.1928C19.1681 24.7432 19.7652 24.4971 20.3835 24.5179L21.7699 24.5645C23.0096 24.6062 24.0258 23.5954 23.9839 22.3623L23.937 20.9832C23.9161 20.3682 24.1635 19.7742 24.6154 19.354L25.6289 18.4118C25.9335 18.1286 26.1357 17.7791 26.2356 17.4079C26.3159 17.1094 26.058 16.8546 25.7488 16.8546C25.4397 16.8546 25.1971 17.1105 25.107 17.4062C25.0133 17.7139 24.8393 18.0023 24.5849 18.2388L23.6841 19.0763C23.2823 19.4498 23.0624 19.9778 23.081 20.5245L23.1227 21.7503C23.1599 22.8464 22.2567 23.7449 21.1547 23.7079L19.9223 23.6664C19.3727 23.648 18.8419 23.8667 18.4665 24.2663L17.6245 25.1624C17.3853 25.4169 17.0933 25.5906 16.782 25.6834C16.4873 25.7713 16.2329 26.0126 16.2329 26.3202Z" fill="#1E1F28" fill-opacity="0.25"/>
<path d="M21.6602 20.0737H11.5C11.2239 20.0737 11 19.8499 11 19.5737V15.3712C11 14.9242 11.5417 14.7018 11.8558 15.0199L13.2233 16.4049C13.4467 16.6312 13.8219 16.5941 13.9967 16.3285L16.3892 12.6938C16.5964 12.3791 17.064 12.3979 17.2452 12.7283L19.1803 16.256C19.3412 16.5494 19.7394 16.6049 19.9745 16.3668L21.3044 15.0199C21.6185 14.7018 22.1602 14.9242 22.1602 15.3712V19.5737C22.1602 19.8499 21.9364 20.0737 21.6602 20.0737Z" fill="#2A2A37"/>
<path d="M26.2667 6.81783C26.3492 6.65137 26.3929 6.48041 26.3977 6.30496C29.0864 5.52666 31.0616 4.81584 30.9985 4.62239C30.9354 4.42894 28.8534 4.82034 26.1405 5.51766C25.9998 5.33321 25.8153 5.17575 25.5775 5.07228C25.4028 4.99579 25.2281 4.9598 25.0485 4.95081C24.1992 2.47195 23.4227 0.649915 23.214 0.7084C23.0054 0.766885 23.4324 2.67439 24.1895 5.17575C23.9808 5.30622 23.8061 5.48167 23.6897 5.71111C23.6071 5.87757 23.5635 6.05302 23.5586 6.22398C20.8942 6.99328 18.9384 7.6996 19.0015 7.89305C19.0646 8.0865 21.1223 7.6996 23.8158 7.00678C23.9566 7.19123 24.141 7.34869 24.3788 7.45216C24.5681 7.53314 24.7622 7.56913 24.9563 7.57363C25.8008 10.048 26.5724 11.861 26.7811 11.807C26.9898 11.7486 26.5627 9.83205 25.7959 7.32619C25.9998 7.20023 26.1599 7.02927 26.2667 6.81783Z" fill="white"/>
<path opacity="0.5" d="M2.76196 15.3801C2.45985 15.0819 2.47531 14.5935 2.78212 14.3021L4.54996 12.6216C4.86076 12.3211 5.36066 12.3273 5.65611 12.6283C5.95821 12.9265 5.94276 13.4149 5.63595 13.7063L3.86811 15.3868C3.55465 15.6809 3.06406 15.6783 2.76196 15.3801Z" fill="white"/>
<path opacity="0.5" d="M12.4363 5.88544C12.1558 5.63782 12.1453 5.20731 12.4009 4.93601L13.8734 3.37124C14.132 3.09169 14.5721 3.07283 14.8469 3.32316C15.1274 3.57077 15.1379 4.00129 14.8823 4.27258L13.4098 5.83735C13.1485 6.11137 12.7168 6.13305 12.4363 5.88544Z" fill="white"/>
<path d="M14.0248 3.66855C14.4879 3.17569 15.0761 2.87386 15.6923 2.76305C15.9879 2.7099 16.2333 2.95831 16.2333 3.25863C16.2333 3.55896 15.9876 3.79709 15.6928 3.85463C15.139 3.96275 14.6119 4.2388 14.1947 4.68276L12.9612 5.99555C12.4112 6.58098 11.6336 6.90137 10.8284 6.8743L9.02303 6.81361C7.40877 6.75935 6.08554 8.07558 6.1401 9.6813L6.20109 11.4772C6.22832 12.278 5.90623 13.0515 5.31767 13.5987L3.99792 14.8256C3.55311 15.2392 3.27596 15.7613 3.16649 16.3102C3.10744 16.6063 2.86814 16.8534 2.56621 16.8534C2.26429 16.8534 2.01447 16.6066 2.06902 16.3097C2.18124 15.6987 2.48433 15.1159 2.97829 14.6566L4.40806 13.3274C5.04563 12.7347 5.39458 11.8968 5.36509 11.0291L5.29899 9.08362C5.2399 7.3441 6.6734 5.91817 8.42219 5.97696L10.3781 6.04271C11.2503 6.07204 12.0927 5.72495 12.6886 5.09072L14.0248 3.66855Z" fill="white" fill-opacity="0.5"/>
<path opacity="0.5" d="M18.442 30.0385C17.9789 30.5313 17.3907 30.8332 16.7745 30.944C16.4789 30.9971 16.2335 30.7487 16.2335 30.4484C16.2335 30.1481 16.4792 29.9099 16.774 29.8524C17.3278 29.7443 17.8549 29.4682 18.2721 29.0243L19.5056 27.7115C20.0556 27.126 20.8332 26.8057 21.6384 26.8327L23.4438 26.8934C25.058 26.9477 26.3813 25.6315 26.3267 24.0257L26.2657 22.2299C26.2385 21.429 26.5606 20.6555 27.1491 20.1084L28.4689 18.8814C28.9137 18.4679 29.1908 17.9457 29.3003 17.3968C29.3594 17.1007 29.5987 16.8536 29.9006 16.8536C30.2025 16.8536 30.4523 17.1004 30.3978 17.3973C30.2856 18.0083 29.9825 18.5912 29.4885 19.0504L28.0587 20.3796C27.4212 20.9723 27.0722 21.8103 27.1017 22.6779L27.1678 24.6234C27.2269 26.3629 25.7934 27.7889 24.0446 27.7301L22.0887 27.6643C21.2165 27.635 20.3741 27.9821 19.7782 28.6163L18.442 30.0385Z" fill="white"/>
<path opacity="0.3" d="M8.7553 3.28064C8.95649 3.04378 8.57566 2.40286 7.87148 1.73407C8.42477 0.94686 8.66907 0.250211 8.42477 0.0551486C8.17327 -0.14688 7.51221 0.222345 6.82958 0.898095C6.01762 0.368641 5.29188 0.124814 5.09069 0.361674C4.8895 0.598535 5.27033 1.23945 5.97451 1.90824C5.42122 2.69545 5.17692 3.3921 5.42841 3.58716C5.67272 3.78222 6.33378 3.41997 7.02359 2.73725C7.82837 3.28064 8.55411 3.5175 8.7553 3.28064Z" fill="white"/>
<path opacity="0.5" d="M33.1526 11.3704C33.6196 11.3704 34.0005 11.0012 34.0005 10.5553C34.0005 10.1025 33.6196 9.74023 33.1526 9.74023C32.6855 9.74023 32.3047 10.1095 32.3047 10.5553C32.3047 11.0012 32.6783 11.3704 33.1526 11.3704Z" fill="white"/>
</svg>
