<?xml version="1.0" encoding="UTF-8" standalone="no"?><svg id="Layer_1" data-name="Layer 1" xmlns="http://www.w3.org/2000/svg" xmlns:xlink="http://www.w3.org/1999/xlink" viewBox="0 0 54 52"><defs><style>.cls-1,.cls-4{isolation:isolate;}.cls-1{opacity:0.15;fill:url(#linear-gradient);}.cls-2{fill:url(#linear-gradient-2);}.cls-3{fill:url(#linear-gradient-3);}.cls-4{opacity:0.74;fill:url(#linear-gradient-4);}.cls-5{fill:url(#linear-gradient-5);}.cls-6{fill:url(#linear-gradient-6);}.cls-7{fill:url(#linear-gradient-7);}.cls-8{fill:url(#linear-gradient-8);}</style><linearGradient id="linear-gradient" x1="46.44" y1="23.11" x2="28.97" y2="-0.81" gradientTransform="matrix(1, 0, 0, -1, 0, 54)" gradientUnits="userSpaceOnUse"><stop offset="0" stop-color="#fafafa"/><stop offset="0.78" stop-color="#2d2e3f"/></linearGradient><linearGradient id="linear-gradient-2" y1="29.48" x2="42.37" y2="29.48" gradientTransform="matrix(1, 0, 0, -1, 0, 54)" gradientUnits="userSpaceOnUse"><stop offset="0" stop-color="#ffc001"/><stop offset="1" stop-color="#ff9e00"/></linearGradient><linearGradient id="linear-gradient-3" y1="26.79" x2="39.84" y2="26.79" gradientTransform="matrix(1, 0, 0, -1, 0, 54)" gradientUnits="userSpaceOnUse"><stop offset="0" stop-color="#ffd44e"/><stop offset="1" stop-color="#ffb100"/></linearGradient><linearGradient id="linear-gradient-4" x1="7.33" y1="28.4" x2="26.37" y2="28.4" xlink:href="#linear-gradient-2"/><linearGradient id="linear-gradient-5" x1="3.51" y1="20.17" x2="21.82" y2="21.36" gradientTransform="matrix(1, 0, 0, -1, 0, 54)" gradientUnits="userSpaceOnUse"><stop offset="0" stop-color="#ffc926"/><stop offset="1" stop-color="#ff8d00"/></linearGradient><linearGradient id="linear-gradient-6" x1="3.13" y1="19.55" x2="19.16" y2="20.6" gradientTransform="matrix(1, 0, 0, -1, 0, 54)" gradientUnits="userSpaceOnUse"><stop offset="0" stop-color="#fff8e1"/><stop offset="1" stop-color="#ffdf81"/></linearGradient><linearGradient id="linear-gradient-7" x1="5.38" y1="35.78" x2="19.05" y2="36.67" xlink:href="#linear-gradient-5"/><linearGradient id="linear-gradient-8" x1="4.11" y1="35.58" x2="17.23" y2="36.43" xlink:href="#linear-gradient-6"/></defs><path class="cls-1" d="M32.06,34c5.28,2.71,19,.27,19,.27-2.6,6.95,2.94,8.6,2.94,8.6-20.1,11.09-34.74,9-34.74,9C16.83,41.7,32.06,34,32.06,34Z"/><path class="cls-2" d="M2.53,0A17.87,17.87,0,0,0,21.92,0s9.7,18.89,20.44,24.52c0,0,1.27,23.1-20.49,24.52C21.87,49,1.27,31.86,0,2.78Z"/><path class="cls-3" d="M39.83,27.24C29.08,21.62,19.39,2.72,19.39,2.72A17.87,17.87,0,0,1,0,2.72c0,31,19.33,49,19.33,49C41.09,50.34,39.83,27.24,39.83,27.24Z"/><path class="cls-4" d="M25.72,39.74,23.8,39a.36.36,0,0,1-.06-.65C24.46,38,24.9,37.49,25,37l1.44-14.4A.59.59,0,0,0,26,22l-1.21-.41a.39.39,0,0,1-.22-.3l-.17-2.19C24,13,21.65,8.88,17.79,7.34c-1.37-.53-4.4-1.3-6.33.12,0,0,.49-.41-.33.24C8.81,9.59,9.09,14,9.2,15.87l.05.54a.43.43,0,0,1-.16.35c-.61.36-1.21.65-1.38.77a.51.51,0,0,0-.38.53L8.7,38.91c0,.06.06.18.11.18l14.44,5.45h.11a16,16,0,0,0,2.58-1.42.36.36,0,0,0,.17-.36l-.22-2.55C25.83,39.92,25.83,39.8,25.72,39.74ZM15.26,9.42c4,1.6,5.12,6.27,5.34,9.89l.06.65-7.38-2.84a.39.39,0,0,1-.22-.3l-.12-1.24c0-1.25-.33-5.1,1.16-6.34a1.36,1.36,0,0,1,.28-.18A9.15,9.15,0,0,1,15.26,9.42Z"/><path class="cls-5" d="M18.34,47.5l-12-6.87c-.06-.06-.23-.06-.23-.18l-3.47-20C3,20.31,5.18,19,5.51,19.07l15.7,6a.25.25,0,0,1,.16.24L19.89,40c-.11.88-1.49,1.6-3.36,2.42l-6.39-7.28a.31.31,0,0,1-.11-.24l-2.26-7s2.75-1.66,3.41-1.31L17,30.32a.52.52,0,0,1,.11.24l-.94,3.08a2.54,2.54,0,0,1-1,.65l-1.71.89c-.11,0,.55-2.37.55-2.49l.33-1c0-.12,0-.18-.11-.24l-1-.53c-.17-.12-.33,0-.39.17l0,2.37a.43.43,0,0,0,.11.24l4.35,3.14a.2.2,0,0,0,.33-.18l.93-9.42c0-.11-.05-.23-.16-.23L8,23a.24.24,0,0,0-.33.24l.93,15c0,.06.06.18.11.18L20.55,42.7c.11.06.11.18.16.42L21,45.84A9.67,9.67,0,0,1,18.34,47.5Z"/><path class="cls-6" d="M18.18,47.44,3.75,42.05a.3.3,0,0,1-.11-.18L2.26,21c0-.36.27-.6.6-.48l15.7,6c.11.06.17.12.17.24L17.24,41.46a1.07,1.07,0,0,1-1.71.83l-8-5.75a.34.34,0,0,1-.11-.23l.11-7.76c0-.71.39-.95,1-.6l5.78,3.74a.38.38,0,0,1,.11.23L13.5,35a.21.21,0,0,1-.28.18l-1.65-.71a.24.24,0,0,1-.17-.3l.33-1c0-.12,0-.18-.11-.24l-1-.53c-.17-.12-.33,0-.39.17l0,2.37a.43.43,0,0,0,.11.24l4.35,3.14a.2.2,0,0,0,.33-.18l.93-9.42c0-.11,0-.23-.16-.23l-10.25-4a.25.25,0,0,0-.33.24l1,15c0,.06.06.18.11.18l11.85,4.26c.11.06.11.12.16.48l.28,2.66C18.45,47.5,18.34,47.5,18.18,47.44Z"/><path class="cls-7" d="M19.34,24.93l-1.77.83c-.22-.06,0-.77-.05-.89l-.17-2.66C17.13,18.54,16,13.86,12,12.32c-1.32-.53-2.37-.53-3-.06-1.48,1.18-1.21,5-1.15,6.34L8,20.37c0,.12,0,.24-.16.24l-1.71.65c-.17-.06-.11-.71-.11-.83L6,18.77c-.11-1.89-2-6.33.33-8.17A7.9,7.9,0,0,1,12.73,10c3.85,1.54,6.22,6.1,6.61,12.14l.22,2.67A.38.38,0,0,1,19.34,24.93Z"/><path class="cls-8" d="M17.57,25.76,16,25.17c-.22-.06-.22-.06-.22-.18l-.16-2.66c-.22-3.67-1.38-8.35-5.34-9.89-1.33-.54-2.37-.54-3-.06-1.49,1.18-1.21,5-1.16,6.34l.17,2.36c0,.12-.06.24-.17.24l-1.59-.59c-.17-.06-.22-.06-.22-.18l-.11-1.66c-.17-1.95-.44-6.33,1.87-8.17,1.21-1,2.86-1.07,4.85-.24,3.85,1.54,6.22,5.69,6.61,11.73l.22,3.32C17.74,25.64,17.68,25.76,17.57,25.76Z"/></svg>